<svg width="98" height="97" viewBox="0 0 98 97" fill="none" xmlns="http://www.w3.org/2000/svg">
<g id="Star 2" style="mix-blend-mode:hard-light">
<path d="M49 0L54.6032 22.6389L68.9301 4.23627L64.8408 27.197L85.4141 16.2126L72.3394 35.525L95.6018 33.8582L75.8024 46.183L97.7316 54.1219L74.631 57.328L91.4352 73.5L69.0278 67.0331L77.8015 88.6418L59.9616 73.62L59.1877 96.9292L49 75.95L38.8123 96.9292L38.0384 73.62L20.1985 88.6418L28.9722 67.0331L6.56475 73.5L23.369 57.328L0.268429 54.1219L22.1976 46.183L2.39823 33.8582L25.6606 35.525L12.5859 16.2126L33.1592 27.197L29.0699 4.23627L43.3968 22.6389L49 0Z" fill="url(#paint0_radial_1221_639)"/>
<path d="M49 0L54.6032 22.6389L68.9301 4.23627L64.8408 27.197L85.4141 16.2126L72.3394 35.525L95.6018 33.8582L75.8024 46.183L97.7316 54.1219L74.631 57.328L91.4352 73.5L69.0278 67.0331L77.8015 88.6418L59.9616 73.62L59.1877 96.9292L49 75.95L38.8123 96.9292L38.0384 73.62L20.1985 88.6418L28.9722 67.0331L6.56475 73.5L23.369 57.328L0.268429 54.1219L22.1976 46.183L2.39823 33.8582L25.6606 35.525L12.5859 16.2126L33.1592 27.197L29.0699 4.23627L43.3968 22.6389L49 0Z" fill="url(#paint1_linear_1221_639)" fill-opacity="0.2"/>
</g>
<defs>
<radialGradient id="paint0_radial_1221_639" cx="0" cy="0" r="1" gradientUnits="userSpaceOnUse" gradientTransform="translate(49 49) rotate(90) scale(49)">
<stop stop-color="#002457"/>
<stop offset="1" stop-color="#002A64"/>
</radialGradient>
<linearGradient id="paint1_linear_1221_639" x1="15.3419" y1="-5.35937" x2="83.9787" y2="29.8897" gradientUnits="userSpaceOnUse">
<stop stop-color="white" stop-opacity="0"/>
<stop offset="1"/>
</linearGradient>
</defs>
</svg>
